<svg width="1440" height="810" viewBox="0 0 1440 810" fill="none" xmlns="http://www.w3.org/2000/svg">
<path d="M433 582C357 451.5 172.5 522 41.5 358.5" stroke="white" stroke-width="10"/>
<path d="M935 508C1059.17 486.333 1275.3 406.7 1146.5 261.5" stroke="white" stroke-width="10"/>
<path d="M1417 209C1354.5 100.5 1130.4 5.10002 986 29.5C841.6 53.9 898.5 238.5 691.5 369.5" stroke="white" stroke-width="10"/>
<path d="M1385 485C1352 596 1165.67 734.333 1146 730" stroke="white" stroke-width="10"/>
<path d="M994.5 800C962 705.667 503.5 583.5 503.5 406" stroke="white" stroke-width="10"/>
<path d="M641 163.5C535.5 171.667 196.4 85.8 112 13" stroke="white" stroke-width="10"/>
<path d="M6 699C15.5 728.167 58.1 788.9 152.5 798.5" stroke="white" stroke-width="10"/>
</svg>
