<svg width="22" height="18" viewBox="0 0 22 18" xmlns="http://www.w3.org/2000/svg">
<path d="M9.11848 18V17.5068C7.07662 17.2416 6.95652 16.2587 6.94945 14.2645L6.94901 9.51076C6.94901 7.71429 7.1298 6.65753 7.99758 5.24853C8.79306 4.01566 10.4925 2.99413 11.9749 2.99413C12.8066 2.99413 13.602 3.48728 13.9998 4.22701C14.1753 4.5689 14.3507 5.01034 14.3609 6.77521L14.3609 14.2664C14.3537 16.2301 14.2334 17.242 12.228 17.5068V18H21.2313V17.5068C19.1555 17.2748 19.0333 16.2314 19.0262 14.2593L19.0257 5.70646C19.0257 3.22104 18.6641 2.4009 18.2544 1.84143L18.1941 1.76125C17.2901 0.528376 16.1331 0 14.3614 0C12.0111 0 9.62469 1.16243 6.94901 3.94521C6.76822 1.90215 6.58743 1.409 6.04506 0.317025L0.1875 0.774951V1.2681C2.19532 1.56648 2.31343 2.52011 2.32038 4.51079L2.32035 14.2664C2.31313 16.2301 2.19281 17.242 0.1875 17.5068V18H9.11848Z" />
</svg>
