<svg width="1708" height="1215" viewBox="0 0 1708 1215" fill="none" xmlns="http://www.w3.org/2000/svg">
<path fill-rule="evenodd" clip-rule="evenodd" d="M392.173 489.855C302.677 382.147 128.694 465.933 157.104 603.058C17.0941 605.874 -25.8763 794.139 99.0464 857.424C13.9532 968.644 134.353 1119.62 261.719 1061.41C295.619 1197.28 488.726 1197.28 522.626 1061.41C649.992 1119.62 770.392 968.644 685.299 857.424C810.222 794.139 767.252 605.874 627.242 603.058C655.652 465.933 481.669 382.147 392.173 489.855Z" fill="black"/>
<path fill-rule="evenodd" clip-rule="evenodd" d="M367.173 62.8551C277.677 -44.8533 103.694 38.9326 132.104 176.058C-7.90594 178.874 -50.8763 367.139 74.0464 430.424C-11.0468 541.644 109.353 692.62 236.719 634.409C270.619 770.282 463.726 770.282 497.626 634.409C624.992 692.62 745.392 541.644 660.299 430.424C785.222 367.139 742.252 178.874 602.242 176.058C630.652 38.9326 456.669 -44.8533 367.173 62.8551Z" fill="black"/>
<path fill-rule="evenodd" clip-rule="evenodd" d="M798.173 49.8551C708.677 -57.8533 534.694 25.9326 563.104 163.058C423.094 165.874 380.124 354.139 505.046 417.424C419.953 528.644 540.353 679.62 667.719 621.409C701.619 757.282 894.726 757.282 928.626 621.409C1055.99 679.62 1176.39 528.644 1091.3 417.424C1216.22 354.139 1173.25 165.874 1033.24 163.058C1061.65 25.9326 887.669 -57.8533 798.173 49.8551Z" fill="black"/>
<path fill-rule="evenodd" clip-rule="evenodd" d="M1340.17 111.855C1250.68 4.14674 1076.69 87.9326 1105.1 225.058C965.094 227.874 922.124 416.139 1047.05 479.424C961.953 590.644 1082.35 741.62 1209.72 683.409C1243.62 819.282 1436.73 819.282 1470.63 683.409C1597.99 741.62 1718.39 590.644 1633.3 479.424C1758.22 416.139 1715.25 227.874 1575.24 225.058C1603.65 87.9326 1429.67 4.14674 1340.17 111.855Z" fill="black"/>
<path fill-rule="evenodd" clip-rule="evenodd" d="M830.173 516.855C740.677 409.147 566.694 492.933 595.104 630.058C455.094 632.874 412.124 821.139 537.046 884.424C451.953 995.644 572.353 1146.62 699.719 1088.41C733.619 1224.28 926.726 1224.28 960.626 1088.41C1087.99 1146.62 1208.39 995.644 1123.3 884.424C1248.22 821.139 1205.25 632.874 1065.24 630.058C1093.65 492.933 919.669 409.147 830.173 516.855Z" fill="black"/>
<path fill-rule="evenodd" clip-rule="evenodd" d="M1323.17 540.855C1233.68 433.147 1059.69 516.933 1088.1 654.058C948.094 656.874 905.124 845.139 1030.05 908.424C944.953 1019.64 1065.35 1170.62 1192.72 1112.41C1226.62 1248.28 1419.73 1248.28 1453.63 1112.41C1580.99 1170.62 1701.39 1019.64 1616.3 908.424C1741.22 845.139 1698.25 656.874 1558.24 654.058C1586.65 516.933 1412.67 433.147 1323.17 540.855Z" fill="black"/>
</svg>
